<svg width="13" height="17" viewBox="0 0 13 17" fill="none" xmlns="http://www.w3.org/2000/svg">
<path d="M6.36426 16.8713C6.36426 16.8713 12.3643 11.1853 12.3643 6.87134C12.3643 5.28004 11.7321 3.75392 10.6069 2.6287C9.48168 1.50348 7.95556 0.871338 6.36426 0.871338C4.77296 0.871338 3.24684 1.50348 2.12162 2.6287C0.996399 3.75392 0.364258 5.28004 0.364258 6.87134C0.364258 11.1853 6.36426 16.8713 6.36426 16.8713ZM6.36426 9.87134C5.56861 9.87134 4.80555 9.55527 4.24294 8.99266C3.68033 8.43005 3.36426 7.66699 3.36426 6.87134C3.36426 6.07569 3.68033 5.31263 4.24294 4.75002C4.80555 4.18741 5.56861 3.87134 6.36426 3.87134C7.15991 3.87134 7.92297 4.18741 8.48558 4.75002C9.04819 5.31263 9.36426 6.07569 9.36426 6.87134C9.36426 7.66699 9.04819 8.43005 8.48558 8.99266C7.92297 9.55527 7.15991 9.87134 6.36426 9.87134Z" fill="#DADCDC"/>
</svg>
