<svg fill="#4c2e8c" xmlns="http://www.w3.org/2000/svg"  viewBox="0 0 48 48" width="48px" height="48px"><path d="M3.982 41.657V6.338c0-1.291 1.049-2.34 2.34-2.34h35.321c1.291 0 2.34 1.049 2.34 2.34v35.319c0 1.291-1.049 2.34-2.34 2.34H6.322C5.031 43.997 3.982 42.947 3.982 41.657zM30.894 24.747c.603-.441 1.163-.935 1.676-1.469 1.947-2.027 3.245-4.64 3.883-7.279h-4.152c-.545 1.696-1.439 3.283-2.615 4.507-1.025 1.065-2.257 1.856-3.692 2.239v-6.744h-3.999v13.499c0 .276-.225.5-.5.5-.276 0-.5-.224-.5-.5l-.001-1.593c-1.159-.577-2.155-1.367-2.981-2.333-1.868-2.18-3.017-5.429-3.017-9.573h-4c0 4.857 1.349 9.108 3.981 12.177 2.659 3.103 6.481 4.823 11.019 4.821v-7.499c0-.275.224-.5.5-.5.275 0 .5.225.5.5v1.924c2.939.877 5.028 3.02 6.215 5.576h4.297C36.373 29.611 34.121 26.563 30.894 24.747zM7.922 7.933c2.133-.213 5.756-.895 5.713-1.348-.059-.58-4.799-.615-6.709-.576C6.375 6.047 5.957 6.519 5.991 7.065c0 .019-.004.916-.003.933-.033 2.013.024 5.591.587 5.647C7.027 13.689 7.709 10.066 7.922 7.933zM23.99 47.003c8.836 0 16.008.225 16.008.501 0 .276-7.172.501-16.008.501-8.836 0-16.008-.225-16.008-.501C7.982 47.229 15.154 47.003 23.99 47.003z"/></svg>